:SAMPLES-PER-SECOND 30
:FULLY-SPECIFIED
:DEGREES
350
root  -41.632 34.3472 3.016 -165.922 61.8538 -179.356
RightUpLeg  -14.6149 -32.4523 -0.452885
RightLeg  19.1479 -12.5546 -3.43901
RightFoot  0.609269 -0.00531626 0.127491
RightToes  -31.9226 -0.157382 -0.265104
Spine  1.23866 1.6598 1.78
Spine1  2.52247 3.51014 4.1045
HEad  -56.9342 -5.06688 2.76151
LeftShoulder1  -1.94126e-019 -3.10601e-018 -2.51263e-017
LeftArm  -15.9398 26.3129 -79.9496
LeftForeArm  30.1304 -28.6649 -4.55548
LeftHand  -0.488838 -2.22038 7.65924
RightShoulder  -4.96962e-017 0 -2.36833e-017
RightArm  -22.614 -9.96591 75.6396
RightForeArm  62.7019 11.8566 1.47512
RightHand  -0.369357 -0.432973 -8.65244
LeftUpLeg  -29.7586 6.2819 -1.74897
LeftLeg  28.5524 14.4648 6.60074
LeftFoot  1.8562 -0.00882491 0.706327
LeftToes  -12.431 2.40056e-006 -7.68412e-008
351
root  -41.6067 34.2908 2.8618 -165.791 59.8869 -179.331
RightUpLeg  -14.5332 -33.7335 -0.566343
RightLeg  19.8617 -12.9111 -3.70657
RightFoot  0.579744 -0.00617578 0.127955
RightToes  -32.7092 -0.163015 -0.270347
Spine  1.32171 1.60862 1.83032
Spine1  2.68014 3.38671 4.20332
HEad  -57.707 -5.39372 2.82743
LeftShoulder1  -1.94126e-019 -3.10601e-018 -2.51263e-017
LeftArm  -18.7778 25.9543 -79.2303
LeftForeArm  28.687 -27.2955 -4.44698
LeftHand  -0.472455 -1.49472 8.1331
RightShoulder  -4.96962e-017 0 -2.36833e-017
RightArm  -27.7614 -12.0924 75.6585
RightForeArm  64.4425 9.88176 1.52886
RightHand  -0.32071 -1.14802 -8.69234
LeftUpLeg  -30.3212 5.02089 -1.73533
LeftLeg  29.3273 13.7541 6.50758
LeftFoot  1.3443 -0.00440274 0.536864
LeftToes  -11.7081 2.40056e-006 -7.68412e-008
352
root  -41.613 34.2591 2.76366 -165.531 58.4801 -179.271
RightUpLeg  -14.6238 -33.6659 -0.570515
RightLeg  20.4383 -13.918 -4.13907
RightFoot  0.707693 -0.00391003 0.0800062
RightToes  -33.3787 -0.167866 -0.274749
Spine  1.35843 1.61784 1.81858
Spine1  2.74936 3.36126 4.21424
HEad  -58.2048 -5.44559 2.78969
LeftShoulder1  -1.94126e-019 -3.10601e-018 -2.51263e-017
LeftArm  -19.8126 25.8404 -78.2821
LeftForeArm  27.4929 -26.7302 -4.43727
LeftHand  -0.451011 -0.94058 8.40521
RightShoulder  -4.96962e-017 0 -2.36833e-017
RightArm  -29.9821 -14.3535 75.622
RightForeArm  63.8458 9.40288 1.50503
RightHand  -0.28597 -1.46003 -8.31208
LeftUpLeg  -30.8039 4.1396 -1.72768
LeftLeg  29.6854 13.2699 6.3845
LeftFoot  1.0683 -0.00263565 0.44429
LeftToes  -11.1436 2.40056e-006 -7.68412e-008
353
root  -41.6304 34.247 2.68732 -165.28 57.0654 -179.279
RightUpLeg  -14.7637 -33.5674 -0.534438
RightLeg  20.9125 -14.9276 -4.56402
RightFoot  1.00469 0.00173393 -0.0202638
RightToes  -34.1458 -0.173486 -0.279723
Spine  1.38972 1.53273 1.76791
Spine1  2.80493 3.15157 4.14498
HEad  -58.5333 -5.3129 2.79114
LeftShoulder1  -1.94126e-019 -3.10601e-018 -2.51263e-017
LeftArm  -19.5004 25.722 -77.3007
LeftForeArm  27.4051 -26.5439 -4.41375
LeftHand  -0.451212 -0.930182 8.42189
RightShoulder  -4.96962e-017 0 -2.36833e-017
RightArm  -30.2155 -16.444 75.574
RightForeArm  63.0999 9.79246 1.52574
RightHand  -0.300564 -1.27618 -8.37621
LeftUpLeg  -31.227 2.68598 -1.59812
LeftLeg  29.8539 13.3148 6.45304
LeftFoot  1.0145 -0.00118347 0.424409
LeftToes  -10.6225 2.40056e-006 -7.68412e-008
354
root  -41.6495 34.2525 2.64284 -164.93 55.7993 -179.19
RightUpLeg  -14.9072 -33.724 -0.358765
RightLeg  21.1471 -15.5396 -4.81406
RightFoot  1.36062 0.0084486 -0.140178
RightToes  -34.6174 -0.176117 -0.282017
Spine  1.40466 1.43958 1.69873
Spine1  2.82968 2.93664 4.0318
HEad  -58.5571 -5.00248 2.77769
LeftShoulder1  -1.94126e-019 -3.10601e-018 -2.51263e-017
LeftArm  -18.5236 25.4039 -76.4937
LeftForeArm  27.9618 -26.4523 -4.37151
LeftHand  -0.443578 -0.941928 8.26701
RightShoulder  -4.96962e-017 0 -2.36833e-017
RightArm  -28.9953 -18.1172 75.5164
RightForeArm  61.9079 10.5959 1.53823
RightHand  -0.314734 -1.1613 -8.55303
LeftUpLeg  -31.3498 1.35727 -1.38298
LeftLeg  29.385 13.4499 6.38371
LeftFoot  1.01808 0.00109592 0.421701
LeftToes  -10.4033 2.40056e-006 -7.68412e-008
355
root  -41.6862 34.2638 2.62219 -164.535 54.6911 -179.159
RightUpLeg  -15.1765 -34.083 -0.10751
RightLeg  21.2104 -15.8359 -4.92178
RightFoot  1.65356 0.011868 -0.237999
RightToes  -34.961 -0.178424 -0.283963
Spine  1.37612 1.28845 1.57668
Spine1  2.7656 2.62534 3.79497
HEad  -58.2914 -4.4058 2.72389
LeftShoulder1  -1.94126e-019 -3.10601e-018 -2.51263e-017
LeftArm  -17.3707 25.033 -75.903
LeftForeArm  28.1528 -26.4108 -4.34458
LeftHand  -0.443388 -0.965048 8.23536
RightShoulder  -4.96962e-017 0 -2.36833e-017
RightArm  -26.3966 -19.185 75.4325
RightForeArm  60.4145 11.5035 1.50644
RightHand  -0.3221 -1.1295 -8.69472
LeftUpLeg  -31.4516 -0.142064 -1.10644
LeftLeg  28.6658 13.8446 6.35809
LeftFoot  1.17919 0.000703236 0.468726
LeftToes  -10.3836 2.40056e-006 -7.68412e-008
356
root  -41.7336 34.2851 2.62802 -164.352 53.8995 -179.247
RightUpLeg  -15.2911 -34.0526 0.00528418
RightLeg  21.0929 -16.2236 -5.00244
RightFoot  1.88305 0.0164127 -0.319437
RightToes  -35.1032 -0.180421 -0.285581
Spine  1.43351 1.18686 1.39421
Spine1  2.8753 2.42127 3.43521
HEad  -57.9375 -3.85908 2.56136
LeftShoulder1  -1.94126e-019 -3.10601e-018 -2.51263e-017
LeftArm  -16.424 24.4144 -75.6579
LeftForeArm  27.9166 -26.4028 -4.33524
LeftHand  -0.460706 -1.1756 8.29471
RightShoulder  -4.96962e-017 0 -2.36833e-017
RightArm  -23.5186 -19.4947 75.3593
RightForeArm  58.6987 12.3409 1.44264
RightHand  -0.314891 -1.28113 -8.79362
LeftUpLeg  -31.4433 -1.81379 -0.777523
LeftLeg  27.9719 14.6217 6.49547
LeftFoot  1.59007 -0.00611074 0.601929
LeftToes  -10.9379 2.40056e-006 -7.68412e-008
